<svg width="33" height="30" viewBox="0 0 33 30" fill="none" xmlns="http://www.w3.org/2000/svg">
<g clip-path="url(#clip0_14_616)">
<path d="M28.8475 3.19999C27.9665 2.40834 26.8083 1.92232 25.5741 1.82641C24.3398 1.7305 23.1077 2.03075 22.0917 2.67499C25.3576 3.91113 28.0255 6.17383 29.6083 9.04999C30.2193 8.13797 30.4764 7.06608 30.3385 6.00562C30.2006 4.94516 29.6756 3.95733 28.8475 3.19999Z" fill="white"/>
<path d="M23.2191 17.95C23.3143 17.772 23.3283 17.567 23.2579 17.3796C23.1875 17.1923 23.0384 17.0379 22.8433 16.95L19.91 15.65L22.8158 18.3334C22.9976 18.2552 23.1413 18.1186 23.2191 17.95Z" fill="white"/>
<path d="M16.5 7.16669C16.2812 7.16669 16.0713 7.2457 15.9166 7.38636C15.7619 7.52701 15.675 7.71777 15.675 7.91669V11.75L17.325 13.2584V7.91669C17.325 7.71777 17.2381 7.52701 17.0834 7.38636C16.9286 7.2457 16.7188 7.16669 16.5 7.16669Z" fill="white"/>
<path d="M10.4684 2.85835C9.72675 2.32563 8.84235 1.98227 7.90622 1.86362C6.9701 1.74498 6.01611 1.85534 5.14252 2.18335L7.60835 4.43335C8.49252 3.81095 9.45209 3.28252 10.4684 2.85835Z" fill="white"/>
<path d="M16.5 3.33331C13.7589 3.33388 11.0909 4.13748 8.89166 5.62498L10.1933 6.81665C12.3126 5.472 14.885 4.84864 17.4593 5.05589C20.0336 5.26314 22.4454 6.28778 24.2717 7.95007C26.0981 9.61237 27.2223 11.8062 27.4472 14.1467C27.6721 16.4872 26.9833 18.825 25.5017 20.75L26.8033 21.9416C28.2168 20.2059 29.0726 18.1476 29.2753 15.9959C29.4781 13.8442 29.02 11.6835 27.9519 9.7545C26.8838 7.8255 25.2477 6.20385 23.2258 5.07015C21.2039 3.93645 18.8756 3.33519 16.5 3.33331Z" fill="white"/>
<path d="M1.42999 3.50831L2.50249 4.48331C2.06087 5.29563 1.88403 6.20583 1.99285 7.10653C2.10168 8.00723 2.49161 8.86084 3.11666 9.56665C3.61492 8.56524 4.24931 7.62457 5.00499 6.76665L6.30666 7.95831C4.42602 10.1961 3.50359 12.9787 3.711 15.7885C3.9184 18.5984 5.2415 21.244 7.43416 23.2333L5.09666 25.3583C5.01179 25.4371 4.94483 25.5303 4.89959 25.6326C4.85435 25.735 4.83172 25.8444 4.833 25.9547C4.83428 26.0649 4.85943 26.1739 4.90703 26.2753C4.95463 26.3767 5.02374 26.4687 5.11041 26.5458C5.19708 26.623 5.29962 26.6838 5.41217 26.725C5.52473 26.7661 5.64509 26.7867 5.76638 26.7855C5.88768 26.7843 6.00754 26.7615 6.11911 26.7182C6.23069 26.6749 6.33179 26.6121 6.41666 26.5333L8.85499 24.3166C11.0697 25.8455 13.7741 26.6732 16.555 26.6732C19.3359 26.6732 22.0403 25.8455 24.255 24.3166L28.05 27.775L29.3333 26.5833L2.74999 2.33331L1.42999 3.50831ZM22.9167 23.1C21.0527 24.3345 18.8061 24.9997 16.5 25C13.5826 25 10.7847 23.9464 8.72182 22.071C6.65892 20.1957 5.49999 17.6521 5.49999 15C5.50293 12.9026 6.23793 10.8601 7.59916 9.16665L22.9167 23.1Z" fill="white"/>
</g>
<defs>
<clipPath id="clip0_14_616">
<rect width="33" height="30" fill="white"/>
</clipPath>
</defs>
</svg>
