<svg width="28" height="26" viewBox="0 0 28 26" fill="none" xmlns="http://www.w3.org/2000/svg">
<path d="M14 2.00001C11.6266 2.00001 9.30655 2.70379 7.33316 4.02237C5.35977 5.34095 3.8217 7.21509 2.91345 9.40781C2.0052 11.6005 1.76756 14.0133 2.23058 16.3411C2.69361 18.6689 3.8365 20.8071 5.51473 22.4853C7.19296 24.1635 9.33115 25.3064 11.6589 25.7694C13.9867 26.2325 16.3995 25.9948 18.5922 25.0866C20.7849 24.1783 22.6591 22.6402 23.9776 20.6669C25.2962 18.6935 26 16.3734 26 14C25.9964 10.8185 24.7309 7.76839 22.4813 5.51875C20.2316 3.2691 17.1815 2.00365 14 2.00001ZM14 24C12.0222 24 10.0888 23.4135 8.4443 22.3147C6.79981 21.2159 5.51809 19.6541 4.76121 17.8268C4.00434 15.9996 3.8063 13.9889 4.19215 12.0491C4.57801 10.1093 5.53041 8.32746 6.92894 6.92894C8.32746 5.53041 10.1093 4.57801 12.0491 4.19215C13.9889 3.8063 15.9996 4.00434 17.8268 4.76121C19.6541 5.51809 21.2159 6.79981 22.3147 8.44431C23.4135 10.0888 24 12.0222 24 14C23.997 16.6513 22.9425 19.1931 21.0678 21.0678C19.1931 22.9425 16.6513 23.997 14 24ZM5.70751 1.70751L1.70751 5.70751C1.51987 5.89515 1.26537 6.00056 1.00001 6.00056C0.734643 6.00056 0.480147 5.89515 0.292507 5.70751C0.104866 5.51987 -0.000549314 5.26537 -0.000549316 5.00001C-0.000549318 4.73464 0.104866 4.48015 0.292507 4.29251L4.29251 0.292507C4.38542 0.199597 4.49572 0.125896 4.61711 0.0756134C4.7385 0.0253307 4.86861 -0.000549315 5.00001 -0.000549316C5.1314 -0.000549317 5.26151 0.0253307 5.3829 0.0756134C5.5043 0.125896 5.6146 0.199597 5.70751 0.292507C5.80042 0.385417 5.87412 0.495718 5.9244 0.617111C5.97468 0.738504 6.00056 0.868612 6.00056 1.00001C6.00056 1.1314 5.97468 1.26151 5.9244 1.3829C5.87412 1.5043 5.80042 1.6146 5.70751 1.70751ZM27.7075 5.70751C27.6146 5.80048 27.5043 5.87424 27.3829 5.92457C27.2615 5.97489 27.1314 6.00079 27 6.00079C26.8686 6.00079 26.7385 5.97489 26.6171 5.92457C26.4957 5.87424 26.3854 5.80048 26.2925 5.70751L22.2925 1.70751C22.1049 1.51987 21.9995 1.26537 21.9995 1.00001C21.9995 0.734643 22.1049 0.480148 22.2925 0.292507C22.4801 0.104866 22.7346 -0.000549311 23 -0.000549316C23.2654 -0.000549322 23.5199 0.104866 23.7075 0.292507L27.7075 4.29251C27.8005 4.38538 27.8742 4.49567 27.9246 4.61707C27.9749 4.73847 28.0008 4.86859 28.0008 5.00001C28.0008 5.13142 27.9749 5.26155 27.9246 5.38295C27.8742 5.50435 27.8005 5.61463 27.7075 5.70751ZM21 13C21.2652 13 21.5196 13.1054 21.7071 13.2929C21.8947 13.4804 22 13.7348 22 14C22 14.2652 21.8947 14.5196 21.7071 14.7071C21.5196 14.8947 21.2652 15 21 15H14C13.7348 15 13.4804 14.8947 13.2929 14.7071C13.1054 14.5196 13 14.2652 13 14V7.00001C13 6.73479 13.1054 6.48044 13.2929 6.2929C13.4804 6.10536 13.7348 6.00001 14 6.00001C14.2652 6.00001 14.5196 6.10536 14.7071 6.2929C14.8947 6.48044 15 6.73479 15 7.00001V13H21Z" fill="black"/>
</svg>
