<svg width="73" height="80" viewBox="0 0 73 80" fill="none" xmlns="http://www.w3.org/2000/svg">
<path d="M25.8824 51.7647C26.2118 51.7647 26.5412 51.7553 26.8706 51.7318C27.3882 49.9106 28.0941 48.1694 28.9788 46.5365C27.5603 47.0307 26.044 47.1782 24.5568 46.9666C23.0696 46.7551 21.6546 46.1906 20.4302 45.3204C19.2057 44.4502 18.2073 43.2995 17.5185 41.9646C16.8296 40.6297 16.4703 39.1492 16.4706 37.6471V14.1224C16.4706 11.6262 17.4622 9.23228 19.2272 7.46723C20.9923 5.70218 23.3862 4.71059 25.8824 4.71059C28.3785 4.71059 30.7724 5.70218 32.5375 7.46723C34.3025 9.23228 35.2941 11.6262 35.2941 14.1224V37.6518C35.2941 38.0847 35.2659 38.5129 35.2094 38.9318C36.6834 37.7023 38.2902 36.6416 40 35.7694V14.1176C40 10.3734 38.5126 6.78254 35.865 4.13496C33.2175 1.48739 29.6266 0 25.8824 0C22.1381 0 18.5472 1.48739 15.8997 4.13496C13.2521 6.78254 11.7647 10.3734 11.7647 14.1176V37.6471C11.7647 41.3913 13.2521 44.9822 15.8997 47.6297C18.5472 50.2773 22.1381 51.7647 25.8824 51.7647ZM4.70588 37.6471C4.70588 43.2634 6.93697 48.6497 10.9083 52.6211C14.8797 56.5924 20.266 58.8235 25.8824 58.8235C25.8824 62.6776 26.7247 66.3341 28.2353 69.6188V72.9412C28.2353 73.5652 27.9874 74.1637 27.5461 74.605C27.1049 75.0462 26.5064 75.2941 25.8824 75.2941C25.2583 75.2941 24.6598 75.0462 24.2186 74.605C23.7773 74.1637 23.5294 73.5652 23.5294 72.9412V63.4259C17.0984 62.8388 11.1192 59.8689 6.76574 55.0992C2.41228 50.3296 -0.000909014 44.1048 2.56861e-07 37.6471C2.56861e-07 37.023 0.247899 36.4245 0.689161 35.9833C1.13042 35.542 1.7289 35.2941 2.35294 35.2941C2.97698 35.2941 3.57546 35.542 4.01672 35.9833C4.45798 36.4245 4.70588 37.023 4.70588 37.6471ZM63.5294 58.8235C63.5294 61.9437 62.2899 64.9361 60.0836 67.1424C57.8773 69.3487 54.8849 70.5882 51.7647 70.5882C48.6445 70.5882 45.6521 69.3487 43.4458 67.1424C41.2395 64.9361 40 61.9437 40 58.8235C40 55.7033 41.2395 52.7109 43.4458 50.5046C45.6521 48.2983 48.6445 47.0588 51.7647 47.0588C54.8849 47.0588 57.8773 48.2983 60.0836 50.5046C62.2899 52.7109 63.5294 55.7033 63.5294 58.8235ZM72.9412 58.8235C72.9412 64.4399 70.7101 69.8262 66.7387 73.7976C62.7674 77.7689 57.3811 80 51.7647 80C46.1484 80 40.762 77.7689 36.7907 73.7976C32.8193 69.8262 30.5882 64.4399 30.5882 58.8235C30.5882 53.2072 32.8193 47.8209 36.7907 43.8495C40.762 39.8781 46.1484 37.6471 51.7647 37.6471C57.3811 37.6471 62.7674 39.8781 66.7387 43.8495C70.7101 47.8209 72.9412 53.2072 72.9412 58.8235ZM35.2941 58.8235C35.2941 60.9865 35.7201 63.1282 36.5479 65.1265C37.3756 67.1249 38.5888 68.9406 40.1182 70.47C41.6477 71.9994 43.4634 73.2126 45.4617 74.0404C47.46 74.8681 49.6018 75.2941 51.7647 75.2941C53.9277 75.2941 56.0694 74.8681 58.0677 74.0404C60.066 73.2126 61.8817 71.9994 63.4112 70.47C64.9406 68.9406 66.1538 67.1249 66.9815 65.1265C67.8093 63.1282 68.2353 60.9865 68.2353 58.8235C68.2353 54.4553 66.5 50.2659 63.4112 47.1771C60.3223 44.0882 56.133 42.3529 51.7647 42.3529C47.3964 42.3529 43.2071 44.0882 40.1182 47.1771C37.0294 50.2659 35.2941 54.4553 35.2941 58.8235Z" fill="white"/>
</svg>
