<svg width="276" height="85" viewBox="0 0 276 85" fill="none" xmlns="http://www.w3.org/2000/svg">
<g clip-path="url(#clip0_40_1304)">
<path d="M14 2.32397C11.888 2.32436 9.81568 2.89806 8.00416 3.98387C6.19264 5.06967 4.70984 6.62686 3.71394 8.48932C2.71804 10.3518 2.24639 12.4497 2.34931 14.5592C2.45223 16.6687 3.12585 18.7106 4.29832 20.4673C5.47079 22.224 7.09812 23.6294 9.00673 24.5338C10.9153 25.4381 13.0336 25.8073 15.1357 25.6021C17.2377 25.3969 19.2446 24.6249 20.9422 23.3686C22.6399 22.1122 23.9647 20.4186 24.7753 18.4683C25.1731 17.5116 24.22 16.5503 23.261 16.94C21.6173 17.6058 19.7924 17.6745 18.1033 17.1341C16.4143 16.5938 14.968 15.4786 14.016 13.9825C13.064 12.4864 12.6664 10.7039 12.8924 8.94499C13.1184 7.18609 13.9537 5.56202 15.253 4.35514L15.3428 4.26181C15.9856 3.52681 15.4746 2.33331 14.4585 2.33331H14.1481L14.0688 2.32631L14 2.32397Z" fill="#FFFC94"/>
</g>
<path d="M32.904 61.368V60.96C32.904 58.104 34.604 56.2 37.188 56.2H47.32C49.088 56.2 50.108 58.784 51.876 58.92H53.984C55.276 58.92 55.684 58.24 55.684 57.424C55.684 56.132 55.072 56.132 54.052 55.656L38.48 50.692C35.216 49.332 32.904 46.476 32.904 41.852V37.772C32.904 30.768 36.712 27.096 42.832 27.096H63.028C69.148 27.096 72.956 30.768 72.956 37.772V38.656C72.956 41.512 71.256 43.416 68.672 43.416H59.016C56.976 43.416 55.956 40.288 53.916 40.288H51.876C50.652 40.288 50.244 41.036 50.244 41.92C50.244 43.212 50.992 43.348 52.148 43.824L67.312 48.176C70.984 49.536 72.888 52.936 72.888 56.404L72.956 61.368C72.956 68.372 69.148 72.044 63.028 72.044H42.832C36.712 72.044 32.904 68.372 32.904 61.368ZM118.008 40.968V66.944C118.008 69.8 116.24 71.704 113.724 71.704H103.796C101.212 71.704 99.0361 70.14 99.5121 67.284C100.872 59.396 101.076 51.372 99.1041 43.62H93.8001C95.5681 51.372 95.5001 59.192 94.1401 66.944C93.6641 69.8 92.1001 71.704 89.5841 71.704H79.9281C77.3441 71.704 75.6441 69.8 75.6441 66.944V32.06C75.6441 29.204 77.3441 27.3 79.9281 27.3H87.4081C89.9241 27.3 93.4601 29 95.9081 28.116C97.6081 27.504 99.7841 27.096 102.028 27.096H105.7C114.064 27.096 118.008 31.448 118.008 40.968ZM161.975 40.968V58.172C161.975 67.692 157.419 72.044 149.055 72.044H133.483C125.119 72.044 120.563 67.692 120.563 58.172V40.968C120.563 31.448 125.119 27.096 133.483 27.096H149.055C157.419 27.096 161.975 31.448 161.975 40.968ZM138.039 57.016H143.751C144.771 52.46 144.771 46.748 143.751 42.192H138.039C138.787 46.748 138.855 52.46 138.039 57.016ZM205.838 40.968V58.172C205.838 67.692 201.282 72.044 192.918 72.044H177.346C168.982 72.044 164.426 67.692 164.426 58.172V40.968C164.426 31.448 168.982 27.096 177.346 27.096H192.918C201.282 27.096 205.838 31.448 205.838 40.968ZM181.902 57.016H187.614C188.634 52.46 188.634 46.748 187.614 42.192H181.902C182.65 46.748 182.718 52.46 181.902 57.016ZM241.844 60.96V66.944C241.844 69.8 240.144 71.704 237.56 71.704H211.108C208.592 71.704 206.824 69.8 206.824 66.944V65.856C206.824 63 207.844 59.532 209.408 57.288L218.996 42.804H211.108C208.592 42.804 206.824 40.9 206.824 38.044V32.06C206.824 29.204 208.592 27.3 211.108 27.3H237.152C239.736 27.3 241.436 29.204 241.436 32.06V33.148C241.436 36.004 240.416 39.472 238.852 41.716L229.264 56.2H237.56C240.144 56.2 241.844 58.104 241.844 60.96Z" fill="#914DFF"/>
<path d="M262.231 18.2345C262.252 17.6537 263.004 17.4394 263.329 17.9218L265.552 21.2308C265.697 21.4466 265.964 21.5444 266.214 21.4732L270.049 20.381C270.608 20.2218 271.044 20.8709 270.685 21.3283L268.225 24.4655C268.065 24.6701 268.054 24.9546 268.199 25.1704L270.423 28.4794C270.747 28.9618 270.265 29.5772 269.719 29.3775L265.975 28.0074C265.731 27.9181 265.457 27.9961 265.297 28.2006L262.837 31.3379C262.478 31.7952 261.744 31.5265 261.765 30.9456L261.911 26.9617C261.92 26.7019 261.762 26.4656 261.518 26.3762L257.774 25.0062C257.228 24.8064 257.257 24.0249 257.816 23.8657L261.65 22.7735C261.9 22.7023 262.075 22.4782 262.085 22.2185L262.231 18.2345Z" fill="#FFFC94"/>
<path d="M253.429 32.7562C253.609 32.2034 254.391 32.2034 254.571 32.7562L255.437 35.4223C255.517 35.6695 255.748 35.8369 256.008 35.8369H258.811C259.392 35.8369 259.634 36.5806 259.163 36.9223L256.896 38.57C256.685 38.7228 256.597 38.9936 256.678 39.2408L257.544 41.9069C257.723 42.4597 257.091 42.9193 256.621 42.5777L254.353 40.93C254.142 40.7772 253.858 40.7772 253.647 40.93L251.379 42.5777C250.909 42.9193 250.277 42.4597 250.456 41.9069L251.322 39.2408C251.403 38.9936 251.315 38.7228 251.104 38.57L248.837 36.9223C248.366 36.5806 248.608 35.8369 249.189 35.8369H251.992C252.252 35.8369 252.483 35.6695 252.563 35.4223L253.429 32.7562Z" fill="#FFFC94"/>
<defs>
<clipPath id="clip0_40_1304">
<rect width="28" height="28" fill="white"/>
</clipPath>
</defs>
</svg>
