<svg width="94" height="20" viewBox="0 0 94 20" fill="none" xmlns="http://www.w3.org/2000/svg">
<path d="M0.84 15.28V15.1C0.84 13.84 1.59 13 2.73 13H7.2C7.98 13 8.43 14.14 9.21 14.2H10.14C10.71 14.2 10.89 13.9 10.89 13.54C10.89 12.97 10.62 12.97 10.17 12.76L3.3 10.57C1.86 9.97 0.84 8.71 0.84 6.67V4.87C0.84 1.78 2.52 0.16 5.22 0.16H14.13C16.83 0.16 18.51 1.78 18.51 4.87V5.26C18.51 6.52 17.76 7.36 16.62 7.36H12.36C11.46 7.36 11.01 5.98 10.11 5.98H9.21C8.67 5.98 8.49 6.31 8.49 6.7C8.49 7.27 8.82 7.33 9.33 7.54L16.02 9.46C17.64 10.06 18.48 11.56 18.48 13.09L18.51 15.28C18.51 18.37 16.83 19.99 14.13 19.99H5.22C2.52 19.99 0.84 18.37 0.84 15.28ZM38.3859 6.28V17.74C38.3859 19 37.6059 19.84 36.4959 19.84H32.1159C30.9759 19.84 30.0159 19.15 30.2259 17.89C30.8259 14.41 30.9159 10.87 30.0459 7.45H27.7059C28.4859 10.87 28.4559 14.32 27.8559 17.74C27.6459 19 26.9559 19.84 25.8459 19.84H21.5859C20.4459 19.84 19.6959 19 19.6959 17.74V2.35C19.6959 1.09 20.4459 0.249999 21.5859 0.249999H24.8859C25.9959 0.249999 27.5559 1 28.6359 0.61C29.3859 0.34 30.3459 0.16 31.3359 0.16H32.9559C36.6459 0.16 38.3859 2.08 38.3859 6.28ZM57.783 6.28V13.87C57.783 18.07 55.773 19.99 52.083 19.99H45.213C41.523 19.99 39.513 18.07 39.513 13.87V6.28C39.513 2.08 41.523 0.16 45.213 0.16H52.083C55.773 0.16 57.783 2.08 57.783 6.28ZM47.223 13.36H49.743C50.193 11.35 50.193 8.83 49.743 6.82H47.223C47.553 8.83 47.583 11.35 47.223 13.36ZM77.1342 6.28V13.87C77.1342 18.07 75.1242 19.99 71.4342 19.99H64.5642C60.8742 19.99 58.8642 18.07 58.8642 13.87V6.28C58.8642 2.08 60.8742 0.16 64.5642 0.16H71.4342C75.1242 0.16 77.1342 2.08 77.1342 6.28ZM66.5742 13.36H69.0942C69.5442 11.35 69.5442 8.83 69.0942 6.82H66.5742C66.9042 8.83 66.9342 11.35 66.5742 13.36ZM93.0195 15.1V17.74C93.0195 19 92.2695 19.84 91.1295 19.84H79.4595C78.3495 19.84 77.5695 19 77.5695 17.74V17.26C77.5695 16 78.0195 14.47 78.7095 13.48L82.9395 7.09H79.4595C78.3495 7.09 77.5695 6.25 77.5695 4.99V2.35C77.5695 1.09 78.3495 0.249999 79.4595 0.249999H90.9495C92.0895 0.249999 92.8395 1.09 92.8395 2.35V2.83C92.8395 4.09 92.3895 5.62 91.6995 6.61L87.4695 13H91.1295C92.2695 13 93.0195 13.84 93.0195 15.1Z" fill="white"/>
</svg>
